<svg width="13" height="13" viewBox="0 0 13 13" fill="none" xmlns="http://www.w3.org/2000/svg">
<path d="M12.5359 0.348214C12.6371 0.592262 12.5954 0.800595 12.4109 0.973214L8.00912 5.375V12C8.00912 12.25 7.89304 12.4256 7.6609 12.5268C7.58352 12.5565 7.50911 12.5714 7.43769 12.5714C7.27697 12.5714 7.14304 12.5149 7.0359 12.4018L4.75019 10.1161C4.63709 10.003 4.58054 9.86905 4.58054 9.71429V5.375L0.178757 0.973214C-0.00576636 0.800595 -0.047433 0.592262 0.0537574 0.348214C0.154948 0.116071 0.330543 0 0.580543 0H12.0091C12.2591 0 12.4347 0.116071 12.5359 0.348214Z" fill="#525252"/>
</svg>
