<svg xmlns="http://www.w3.org/2000/svg" width="24" height="24" viewBox="0 0 24 24" fill="none">
  <rect x="0.5" y="0.5" width="23" height="23" stroke="white"/>
  <path d="M16.8743 13.6225C16.8743 16.8475 14.2598 19.4625 11.0348 19.4625C7.80981 19.4625 5.19531 16.8475 5.19531 13.6225V10.2715H16.8743V13.6225Z" fill="white" stroke="white" stroke-width="0.5" stroke-linecap="round" stroke-linejoin="round"/>
  <path d="M16.8771 10.271C17.5461 10.271 18.1877 10.5367 18.6608 11.0098C19.1339 11.4829 19.3996 12.1245 19.3996 12.7935C19.3996 13.4625 19.1339 14.1041 18.6608 14.5772C18.1877 15.0502 17.5461 15.316 16.8771 15.316H16.6271M15.3626 4.64648C15.3626 5.78652 14.9097 6.87986 14.1036 7.68598C13.2975 8.49211 12.2042 8.94498 11.0641 8.94498H8.07812C8.07813 7.80495 8.531 6.71161 9.33713 5.90549C10.1433 5.09936 11.2366 4.64648 12.3766 4.64648H15.3626Z" stroke="white" stroke-width="0.5" stroke-linecap="round" stroke-linejoin="round"/>
  <path d="M13.9985 8C14.7205 7.19727 15.573 5.55814 15.4985 4.5L11.9985 4.50047C10.903 4.57756 9.72049 5.69756 8.9985 6.50029C8.27652 7.30302 7.92402 7.94186 7.99849 9L10.9985 9C12.094 8.92291 13.2765 8.80273 13.9985 8Z" fill="white"/>
</svg>