<svg width="146" height="26" viewBox="0 0 146 26" fill="none" xmlns="http://www.w3.org/2000/svg">
<path d="M14.3813 0H11.1037V8.03065L7.89524 11.2941H0V14.6279H9.25411L14.375 9.41282H14.3687H14.3813V0Z" fill="#F89202"/>
<path d="M10.8759 25.8732H14.1535V17.8425L17.3619 14.5791H25.2571V11.2453H16.003L10.8821 16.454L10.8884 16.4604H10.8759V25.8732Z" fill="#F89202"/>
<path d="M14.3813 0H11.1037V8.03065L7.89524 11.2941H0V14.6279H9.25411L14.375 9.41282H14.3687H14.3813V0Z" fill="#F89202"/>
<path d="M10.8759 25.8732H14.1535V17.8425L17.3619 14.5791H25.2571V11.2453H16.003L10.8821 16.454L10.8884 16.4604H10.8759V25.8732Z" fill="#F89202"/>
<path d="M33.2578 20.0676H36.5919V9.38486L39.8556 6.12118H50.9954V2.78711H38.4733L33.2642 7.9962L33.2706 8.0026H33.2578V20.0676Z" fill="#F5F5F5"/>
<rect x="33.2578" y="19.7012" width="17.829" height="3.38295" fill="#F5F5F5"/>
<rect x="119.66" y="2.78711" width="20.2977" height="3.38295" transform="rotate(90 119.66 2.78711)" fill="#F5F5F5"/>
<path d="M126.789 6.16992L108.96 6.16992L113.44 2.78697L126.789 2.78698L126.789 6.16992Z" fill="#F5F5F5"/>
<rect x="81.8047" y="2.78711" width="20.2977" height="3.38295" transform="rotate(90 81.8047 2.78711)" fill="#F5F5F5"/>
<path d="M88.9414 6.16992L71.1124 6.16992L75.5925 2.78697L88.9414 2.78698L88.9414 6.16992Z" fill="#F5F5F5"/>
<path d="M52.1797 20.0676H55.5138V9.38486L58.7774 6.12118H66.8086V2.78711H57.3952L52.1861 7.9962L52.1925 8.0026H52.1797V20.0676Z" fill="#F5F5F5"/>
<rect x="52.1797" y="19.7012" width="17.829" height="3.38295" fill="#F5F5F5"/>
<rect x="70.0078" y="2.78711" width="20.2977" height="3.38295" transform="rotate(90 70.0078 2.78711)" fill="#F5F5F5"/>
<path d="M127.887 20.0676H131.221V9.38486L134.484 6.12118H142.516V2.78711H133.102L127.893 7.9962L127.9 8.0026H127.887V20.0676Z" fill="#F5F5F5"/>
<rect x="127.887" y="19.7012" width="17.829" height="3.38295" fill="#F5F5F5"/>
<rect x="145.715" y="2.78711" width="20.2977" height="3.38295" transform="rotate(90 145.715 2.78711)" fill="#F5F5F5"/>
<path d="M90.0352 23.0848H93.3692V9.35528L96.6329 6.10623H104.664V2.78711H95.2506L90.0416 7.97284L90.048 7.97921H90.0352V23.0848Z" fill="#F5F5F5"/>
<rect x="105.582" y="14.7656" width="13.4404" height="3.38295" transform="rotate(-180 105.582 14.7656)" fill="#F5F5F5"/>
<rect x="107.863" y="2.78711" width="20.2977" height="3.38295" transform="rotate(90 107.863 2.78711)" fill="#F5F5F5"/>
</svg>
