<svg width="193" height="194" viewBox="0 0 193 194" fill="none" xmlns="http://www.w3.org/2000/svg">
<path d="M109.33 0H84.4126V60.0214L60.0214 84.4126H0V109.33H70.3518L109.282 70.3518H109.234H109.33V0Z" fill="#F89202"/>
<path d="M82.6807 193.377H107.598V133.356L131.989 108.965H192.011V84.0475H121.659L82.7286 122.978L82.7764 123.026H82.6807V193.377Z" fill="#F89202"/>
<path d="M109.33 0H84.4126V60.0214L60.0214 84.4126H0V109.33H70.3518L109.282 70.3518H109.234H109.33V0Z" fill="#F89202"/>
<path d="M82.6807 193.377H107.598V133.356L131.989 108.965H192.011V84.0475H121.659L82.7286 122.978L82.7764 123.026H82.6807V193.377Z" fill="#F89202"/>
</svg>
