<svg width="69" height="71" viewBox="0 0 69 71" fill="none" xmlns="http://www.w3.org/2000/svg">
<path d="M39.2883 0H30.3341V22.0373L21.569 30.9927H0V40.1413H25.2813L39.2711 25.8302H39.2539H39.2883V0Z" fill="#FFA726"/>
<path d="M29.7117 71H38.6659V48.9627L47.431 40.0073H69V30.8587H43.7187L29.7289 45.1522L29.7461 45.1698H29.7117V71Z" fill="#FFA726"/>
<path d="M39.2883 0H30.3341V22.0373L21.569 30.9927H0V40.1413H25.2813L39.2711 25.8302H39.2539H39.2883V0Z" fill="#FFA726"/>
<path d="M29.7117 71H38.6659V48.9627L47.431 40.0073H69V30.8587H43.7187L29.7289 45.1522L29.7461 45.1698H29.7117V71Z" fill="#FFA726"/>
</svg>
