<svg width="16" height="17" viewBox="0 0 16 17" fill="none" xmlns="http://www.w3.org/2000/svg">
<path d="M9.11032 0H7.034V5.27654L5.00151 7.4208H0V9.6113H5.86233L9.10633 6.1847H9.10235H9.11032V0Z" fill="white"/>
<path d="M6.88968 17H8.966V11.7235L10.9985 9.5792H16V7.3887H10.1377L6.89367 10.8111L6.89765 10.8153H6.88968V17Z" fill="white"/>
<path d="M9.11032 0H7.034V5.27654L5.00151 7.4208H0V9.6113H5.86233L9.10633 6.1847H9.10235H9.11032V0Z" fill="white"/>
<path d="M6.88968 17H8.966V11.7235L10.9985 9.5792H16V7.3887H10.1377L6.89367 10.8111L6.89765 10.8153H6.88968V17Z" fill="white"/>
</svg>
